<svg width="122" height="128" fill="none" xmlns="http://www.w3.org/2000/svg"><path d="M89.668 62.957a44.772 44.772 0 00-2.888-1.982c4.775-3.17 7.305-8.89 7.154-14.439-.151-5.643-2.813-10.966-6.965-13.892-4.605-3.246-10.268-4.963-16.817-5.001H33.177v70.043H71.85c4.095-.02 8.436-.189 12.457-1.699 7.134-2.718 11.985-8.493 12.966-15.44.963-6.68-1.887-13.25-7.606-17.59zM57.488 88.4H43.764l.038-51.452h13.514c14.628.019 16.044.189 17.893.528 4.285.755 7.663 4.04 8.192 8.003C84.76 55.652 73.36 57.181 69.83 57.181h-11.4c-3.7 0-7.172 1.925-9.267 4.964L46.087 66.6h22.14c16.76 0 19.742 7.229 18.817 12.74-.849 5.096-4.907 8.38-10.984 8.795-2.68.132-5.04.265-18.573.265zM19.492 16.337c1.623-1.434 3.926-1.302 5.38.32 1.434 1.605 1.283 3.908-.34 5.38-1.605 1.434-3.908 1.284-5.361-.32-1.434-1.624-1.302-3.927.32-5.38zm4.605 5.172c1.322-1.17 1.416-3.04.246-4.36-1.19-1.34-3.04-1.454-4.36-.284-1.322 1.17-1.416 3.02-.246 4.36 1.17 1.34 3.02 1.454 4.36.284zm2.454-10.514l2.718-1.642c1.17-.717 2.623-.641 3.53.888.83 1.359.301 2.812-.888 3.529l-2.076 1.246 1.17 1.925-.641.377-3.813-6.323zm.963.17l1.981 3.266 1.982-1.19c.906-.547 1.284-1.585.66-2.623-.679-1.132-1.736-1.19-2.642-.66l-1.981 1.207zm10.928-5.568l2.51 6.229-.698.283-2.51-6.228-2.662 1.075-.245-.622 5.85-2.36.246.623-2.491 1zm6.342-2.83l.717-.19 1.906 7.135-.717.189-1.906-7.135zm10.04 4.963c1.058-.132 1.87-.66 2.379-1.34l.434.49c-.623.87-1.548 1.398-2.737 1.549-2.17.283-4.001-1.152-4.265-3.285-.265-2.132 1.151-3.963 3.322-4.246 1.17-.151 2.227.15 3.038.83l-.302.585c-.66-.547-1.585-.85-2.642-.717-1.755.227-2.869 1.718-2.642 3.473.207 1.718 1.642 2.888 3.416 2.661zm6.72-7.19h.736l-.056 7.379h-.736l.056-7.38zm8.248.546l.83.114 1.964 7.738-.755-.094-.472-1.869-3.983-.547-1.019 1.66-.755-.094 4.19-6.908zM67.68 5.862l3.568.49-1.133-4.492-2.435 4.002zm10.89-1.793l-1.962 5.87-.698-.227 2.34-7.002.642.207 3 7.569 1.964-5.889.698.227-2.36 6.983-.622-.207-3.001-7.531zm7.834 8.286c.283.471.887 1.226 1.736 1.698 1.114.604 2.17.547 2.605-.245.32-.585.056-1.114-.755-1.812l-1.114-.982c-.887-.811-1.151-1.642-.698-2.472.528-.963 1.736-1.36 3.454-.453.868.472 1.585 1.189 1.925 1.717l-.51.491c-.301-.51-1.038-1.208-1.755-1.623-1.245-.68-2.076-.434-2.397.17-.302.547-.094 1.076.548 1.623l1.15 1.057c.963.906 1.341 1.68.87 2.605-.643 1.17-2.134 1.32-3.644.528-.924-.51-1.623-1.302-1.906-1.774l.49-.528zm17.968 9.909c-.774.49-1.642.849-2.529.962l.132 1.793-.075.076-.718-.66-.075-1.19c-.868-.019-1.699-.32-2.435-.982-1.132-1.038-1.302-2.227-.472-3.152.736-.792 1.737-.604 2.643-.264-.038-.793-.057-1.51.472-2.076.698-.774 1.793-.774 2.793.151.925.85 1.095 2.02.415 2.756-.717.793-1.547.717-2.378.377l-.547-.226.188 2.699c.793-.113 1.605-.453 2.398-.963l.188.698zm-3.303.32l-.189-3.02c-.754-.302-1.585-.528-2.113.038-.567.604-.434 1.473.396 2.227.51.491 1.151.736 1.906.755zm.472-3.416l.736.302c.717.302 1.208.245 1.642-.207.453-.491.34-1.265-.283-1.831-.717-.66-1.378-.623-1.831-.132-.396.453-.321 1.264-.264 1.868zm-81.595 82.877l.566.585-3.152 7.022-.51-.529.774-1.699-2.68-2.812-1.755.661-.51-.529 7.267-2.699zm-4.492 2.341l2.397 2.51 1.812-4.058-4.21 1.548zm7.153 6.039c-.868 1.114-.887 2.322.396 3.322 1.265 1.001 2.51.604 3.322-.471l2.567-3.341.567.434-2.586 3.36c-1 1.264-2.643 1.774-4.266.528-1.604-1.227-1.623-2.869-.566-4.247l2.586-3.359.566.434-2.586 3.34zm10.06 2.001l2.416 1.246c1.869.981 2.68 2.812 1.605 4.87-1.076 2.038-3.04 2.434-4.908 1.453l-2.416-1.246 3.303-6.323zm.34.906l-2.7 5.191 1.756.924c1.53.812 3.114.472 3.964-1.207.887-1.699.264-3.19-1.265-3.964l-1.755-.944zm8.72 3.322l.68.245-2.435 6.701-.68-.246 2.435-6.7zm7.606 2.133c2.058.453 3.266 2.321 2.813 4.379-.453 2.038-2.322 3.246-4.38 2.793-2.038-.453-3.246-2.321-2.793-4.36.453-2.076 2.322-3.265 4.36-2.812zm-1.396 6.512c1.68.377 3.17-.623 3.53-2.284.377-1.68-.586-3.209-2.266-3.549-1.66-.358-3.17.604-3.53 2.303-.377 1.642.567 3.152 2.266 3.53zm8.04 1.811l.397-7.115.717.038-.359 6.474 4.096.226-.038.642-4.813-.265zm11.004-7.304c2.095-.208 3.813 1.189 4.02 3.303.208 2.076-1.208 3.794-3.322 4.001-2.076.208-3.793-1.207-4.001-3.284-.189-2.095 1.227-3.812 3.303-4.02zm.66 6.625c1.7-.17 2.832-1.548 2.662-3.265-.17-1.718-1.529-2.869-3.247-2.699-1.698.17-2.83 1.547-2.66 3.284.169 1.717 1.547 2.85 3.246 2.68zm14.137-3.209c-.49.68-1.547 1.397-2.604 1.68-2.02.585-4.02-.283-4.643-2.491-.642-2.227.623-4.002 2.661-4.568 1.114-.321 2-.17 2.869.246l-.189.622c-.755-.358-1.529-.49-2.472-.207-1.642.472-2.662 1.906-2.133 3.718.51 1.793 2.114 2.51 3.794 2.038.811-.226 1.547-.717 1.962-1.189l-.528-1.868-2.454.698-.17-.604 3.153-.887.754 2.812zm1.661-7.474l.661-.283 2.812 6.549-.66.284-2.813-6.55zm7.078 3.246a4.568 4.568 0 002.284-.566c1.057-.604 1.548-1.51 1.114-2.265-.321-.547-.887-.604-1.869-.302l-1.359.416c-1.113.32-1.925.113-2.378-.68-.528-.906-.264-2.114 1.359-3.058.83-.471 1.793-.717 2.397-.717l.151.68c-.566-.019-1.529.226-2.227.641-1.19.699-1.397 1.491-1.076 2.058.302.528.83.623 1.604.377l1.435-.415c1.208-.34 2.076-.264 2.586.604.641 1.114.019 2.435-1.397 3.265-.887.51-1.888.68-2.416.68l-.208-.718zm6.739-10.758l4.02 5.096-.566.453-4.02-5.096-2.171 1.718-.397-.51 4.776-3.775.396.51-2.038 1.604zm8.002-.019c.51-.151 1.378-.509 2.02-1.189.849-.887 1.057-1.887.415-2.491-.453-.434-1.019-.321-1.868.245l-1.171.793c-.981.641-1.812.66-2.472.038-.774-.718-.85-1.945.434-3.322.661-.699 1.51-1.189 2.095-1.359l.34.604c-.548.151-1.397.66-1.944 1.226-.944 1.001-.925 1.831-.434 2.284.434.416.981.359 1.642-.094l1.245-.831c1.076-.679 1.907-.849 2.643-.151.943.888.717 2.322-.416 3.53-.698.736-1.604 1.189-2.132 1.321l-.397-.604zm-93.164-9.059C4.564 88.778.581 76.508.581 63.655c0-13.74 4.737-27.179 13.325-37.88l.774.622C6.205 36.91 1.562 50.141 1.562 63.637c0 12.645 3.907 24.706 11.325 34.917l-.793.604zm97.902 0l-.812-.585c7.418-10.211 11.325-22.29 11.325-34.918 0-13.514-4.662-26.745-13.099-37.239l.774-.623c8.588 10.683 13.325 24.14 13.325 37.881 0 12.835-3.982 25.103-11.513 35.484z" fill="#fff"/></svg>