<svg width="154" height="14" viewBox="0 0 154 14" fill="none" xmlns="http://www.w3.org/2000/svg">
<path d="M87.9268 7.45459H92.4305V5.78237H87.9268V1.81304H97.1966V0.140819H86.0641V12.8849H97.5988V11.2127H87.9268V7.45459ZM149.938 5.81758L147.149 5.21029C145.697 4.90225 145.05 4.38298 145.05 3.52047C145.05 2.12988 146.851 1.63702 148.39 1.63702H148.53C151.128 1.68102 152.85 2.65795 152.868 2.66676L152.982 2.72836L153.567 1.11775L153.366 1.01214C152.352 0.510468 150.48 0 148.583 0C144.551 0 143.108 1.86585 143.108 3.60848C143.108 5.2543 144.324 6.38085 146.633 6.88252L149.282 7.43699C151.128 7.81544 151.88 8.33471 151.88 9.23243C151.88 10.5086 150.375 11.3711 148.137 11.3975H148.084C145.994 11.3975 143.773 10.2358 143.755 10.2182L143.642 10.1566L143.152 11.8288L143.336 11.9256C144.324 12.4625 146.248 13.0345 148.128 13.0345C151.504 13.0345 153.865 11.4415 153.865 9.16202C153.839 7.44579 152.675 6.45126 149.938 5.81758ZM129.413 0.14962H122.54V12.8849C122.54 12.8849 128.801 12.8937 129.693 12.8937H129.702C131.232 12.8937 132.588 12.4185 133.734 11.4943C136.016 9.64609 136.786 6.7681 135.684 4.14535C134.905 2.31471 133.183 0.14962 129.413 0.14962ZM132.466 10.227C131.722 10.8606 130.856 11.1775 129.894 11.1863C128.793 11.1951 124.429 11.1863 124.429 11.1863V1.85705L129.51 1.86585C131.958 1.86585 133.908 3.42366 134.25 5.72076C134.512 7.4898 133.908 9.0036 132.466 10.227ZM10.3403 6.56568C10.2091 6.46886 9.98174 6.31044 9.82433 6.20483C10.6901 5.63275 11.1448 4.58541 11.1186 3.58208C11.0924 2.55234 10.6114 1.58421 9.85931 1.05614C9.02853 0.466462 8.00535 0.158421 6.81602 0.14962H0.134766V12.8937H7.13084C7.87417 12.8937 8.66123 12.8585 9.38708 12.5857C10.6813 12.0928 11.5559 11.0367 11.7308 9.7781C11.8969 8.55474 11.381 7.35778 10.3403 6.56568ZM4.5248 11.1951H2.0412L2.04994 1.83064H4.49857C7.13959 1.83064 7.40194 1.86585 7.73425 1.92746C8.51256 2.06828 9.11598 2.66676 9.21217 3.37965C9.45704 5.2279 7.40194 5.50953 6.7548 5.50953H4.69096C4.01759 5.50953 3.39669 5.86158 3.0119 6.41606L2.45222 7.22576H6.45747C9.48327 7.22576 10.0255 8.53714 9.85931 9.54047C9.71064 10.4646 8.97606 11.0631 7.87417 11.1423C7.40194 11.1775 6.97343 11.1951 4.5248 11.1951ZM21.4291 7.35778L24.1138 2.28831L26.7548 7.35778H21.4291ZM31.7308 12.8849L25.067 0.140819H23.1956L16.4269 12.8849H18.5082L20.5196 9.08281H27.6643L29.6495 12.8849H31.7308ZM59.068 5.78237V1.81304H68.2503V0.140819H57.179V12.8849H59.068V7.4986H63.5892V5.78237H59.068ZM41.0705 12.8849H43.0294L43.0207 8.81878L49.9118 0.140819H47.4982L42.05 7.13775L36.5931 0.140819H34.1794L41.0705 8.81878V12.8849ZM107.472 11.2127V0.140819H105.592V12.8849H115.797V11.2127H107.472ZM75.7274 0.140819H77.6163V12.8849H75.7274V0.140819Z" fill="#3E2563"/>
</svg>
